<mxfile host="Electron" agent="Mozilla/5.0 (Windows NT 10.0; Win64; x64) AppleWebKit/537.36 (KHTML, like Gecko) draw.io/24.7.17 Chrome/128.0.6613.36 Electron/32.0.1 Safari/537.36" version="24.7.17" pages="2">
  <diagram name="V2.1" id="UVV-p2K0U4PJPdGyYYhy">
    <mxGraphModel dx="1724" dy="1158" grid="1" gridSize="10" guides="1" tooltips="1" connect="1" arrows="1" fold="1" page="1" pageScale="1" pageWidth="827" pageHeight="1169" math="0" shadow="0">
      <root>
        <mxCell id="0" />
        <mxCell id="1" parent="0" />
        <mxCell id="itbHhN2c4KQKCx2iQy7b-13" style="edgeStyle=orthogonalEdgeStyle;rounded=0;orthogonalLoop=1;jettySize=auto;html=1;exitX=0;exitY=0.25;exitDx=0;exitDy=0;exitPerimeter=0;entryX=1;entryY=0.75;entryDx=0;entryDy=0;" parent="1" source="O0-RR_AGeSIj81ylTdOe-1" target="O0-RR_AGeSIj81ylTdOe-15" edge="1">
          <mxGeometry relative="1" as="geometry">
            <Array as="points">
              <mxPoint x="270" y="370" />
              <mxPoint x="270" y="398" />
            </Array>
          </mxGeometry>
        </mxCell>
        <mxCell id="itbHhN2c4KQKCx2iQy7b-15" style="edgeStyle=orthogonalEdgeStyle;rounded=0;orthogonalLoop=1;jettySize=auto;html=1;exitX=0;exitY=0.38;exitDx=0;exitDy=0;exitPerimeter=0;entryX=1;entryY=0.75;entryDx=0;entryDy=0;" parent="1" source="O0-RR_AGeSIj81ylTdOe-1" target="O0-RR_AGeSIj81ylTdOe-16" edge="1">
          <mxGeometry relative="1" as="geometry">
            <Array as="points">
              <mxPoint x="290" y="438" />
              <mxPoint x="290" y="448" />
            </Array>
          </mxGeometry>
        </mxCell>
        <mxCell id="itbHhN2c4KQKCx2iQy7b-17" style="edgeStyle=orthogonalEdgeStyle;rounded=0;orthogonalLoop=1;jettySize=auto;html=1;exitX=0;exitY=0.5;exitDx=0;exitDy=0;exitPerimeter=0;entryX=1;entryY=0.75;entryDx=0;entryDy=0;" parent="1" source="O0-RR_AGeSIj81ylTdOe-1" target="O0-RR_AGeSIj81ylTdOe-20" edge="1">
          <mxGeometry relative="1" as="geometry" />
        </mxCell>
        <mxCell id="itbHhN2c4KQKCx2iQy7b-19" style="edgeStyle=orthogonalEdgeStyle;rounded=0;orthogonalLoop=1;jettySize=auto;html=1;exitX=0;exitY=0.63;exitDx=0;exitDy=0;exitPerimeter=0;entryX=1;entryY=0.75;entryDx=0;entryDy=0;" parent="1" source="O0-RR_AGeSIj81ylTdOe-1" target="O0-RR_AGeSIj81ylTdOe-21" edge="1">
          <mxGeometry relative="1" as="geometry" />
        </mxCell>
        <mxCell id="itbHhN2c4KQKCx2iQy7b-22" style="edgeStyle=orthogonalEdgeStyle;rounded=0;orthogonalLoop=1;jettySize=auto;html=1;exitX=0;exitY=0.75;exitDx=0;exitDy=0;exitPerimeter=0;entryX=1;entryY=0.75;entryDx=0;entryDy=0;" parent="1" source="O0-RR_AGeSIj81ylTdOe-1" target="O0-RR_AGeSIj81ylTdOe-22" edge="1">
          <mxGeometry relative="1" as="geometry">
            <Array as="points">
              <mxPoint x="280" y="630" />
              <mxPoint x="280" y="598" />
            </Array>
          </mxGeometry>
        </mxCell>
        <mxCell id="itbHhN2c4KQKCx2iQy7b-25" style="edgeStyle=orthogonalEdgeStyle;rounded=0;orthogonalLoop=1;jettySize=auto;html=1;exitX=0;exitY=0.94;exitDx=0;exitDy=0;exitPerimeter=0;entryX=1;entryY=0.75;entryDx=0;entryDy=0;" parent="1" source="O0-RR_AGeSIj81ylTdOe-1" target="itbHhN2c4KQKCx2iQy7b-5" edge="1">
          <mxGeometry relative="1" as="geometry" />
        </mxCell>
        <mxCell id="itbHhN2c4KQKCx2iQy7b-26" style="edgeStyle=orthogonalEdgeStyle;rounded=0;orthogonalLoop=1;jettySize=auto;html=1;exitX=1;exitY=0.07;exitDx=0;exitDy=0;exitPerimeter=0;entryX=0;entryY=0.5;entryDx=0;entryDy=0;" parent="1" source="O0-RR_AGeSIj81ylTdOe-1" target="O0-RR_AGeSIj81ylTdOe-3" edge="1">
          <mxGeometry relative="1" as="geometry">
            <Array as="points">
              <mxPoint x="510" y="276" />
              <mxPoint x="510" y="255" />
            </Array>
          </mxGeometry>
        </mxCell>
        <mxCell id="itbHhN2c4KQKCx2iQy7b-27" style="edgeStyle=orthogonalEdgeStyle;rounded=0;orthogonalLoop=1;jettySize=auto;html=1;exitX=1;exitY=0.13;exitDx=0;exitDy=0;exitPerimeter=0;entryX=0;entryY=0.5;entryDx=0;entryDy=0;" parent="1" source="O0-RR_AGeSIj81ylTdOe-1" target="O0-RR_AGeSIj81ylTdOe-4" edge="1">
          <mxGeometry relative="1" as="geometry">
            <Array as="points">
              <mxPoint x="510" y="308" />
              <mxPoint x="510" y="285" />
            </Array>
          </mxGeometry>
        </mxCell>
        <mxCell id="itbHhN2c4KQKCx2iQy7b-28" style="edgeStyle=orthogonalEdgeStyle;rounded=0;orthogonalLoop=1;jettySize=auto;html=1;exitX=1;exitY=0.2;exitDx=0;exitDy=0;exitPerimeter=0;entryX=0;entryY=0.5;entryDx=0;entryDy=0;" parent="1" source="O0-RR_AGeSIj81ylTdOe-1" target="O0-RR_AGeSIj81ylTdOe-5" edge="1">
          <mxGeometry relative="1" as="geometry">
            <Array as="points">
              <mxPoint x="510" y="344" />
              <mxPoint x="510" y="315" />
            </Array>
          </mxGeometry>
        </mxCell>
        <mxCell id="itbHhN2c4KQKCx2iQy7b-29" style="edgeStyle=orthogonalEdgeStyle;rounded=0;orthogonalLoop=1;jettySize=auto;html=1;exitX=1;exitY=0.27;exitDx=0;exitDy=0;exitPerimeter=0;entryX=0;entryY=0.5;entryDx=0;entryDy=0;" parent="1" source="O0-RR_AGeSIj81ylTdOe-1" target="O0-RR_AGeSIj81ylTdOe-6" edge="1">
          <mxGeometry relative="1" as="geometry">
            <Array as="points">
              <mxPoint x="520" y="380" />
              <mxPoint x="520" y="345" />
            </Array>
          </mxGeometry>
        </mxCell>
        <mxCell id="itbHhN2c4KQKCx2iQy7b-30" style="edgeStyle=orthogonalEdgeStyle;rounded=0;orthogonalLoop=1;jettySize=auto;html=1;exitX=1;exitY=0.33;exitDx=0;exitDy=0;exitPerimeter=0;entryX=0;entryY=0.5;entryDx=0;entryDy=0;" parent="1" source="O0-RR_AGeSIj81ylTdOe-1" target="O0-RR_AGeSIj81ylTdOe-7" edge="1">
          <mxGeometry relative="1" as="geometry">
            <Array as="points">
              <mxPoint x="530" y="412" />
              <mxPoint x="530" y="375" />
            </Array>
          </mxGeometry>
        </mxCell>
        <mxCell id="itbHhN2c4KQKCx2iQy7b-31" style="edgeStyle=orthogonalEdgeStyle;rounded=0;orthogonalLoop=1;jettySize=auto;html=1;exitX=1;exitY=0.4;exitDx=0;exitDy=0;exitPerimeter=0;entryX=0;entryY=0.5;entryDx=0;entryDy=0;" parent="1" source="O0-RR_AGeSIj81ylTdOe-1" target="O0-RR_AGeSIj81ylTdOe-8" edge="1">
          <mxGeometry relative="1" as="geometry">
            <Array as="points">
              <mxPoint x="540" y="448" />
              <mxPoint x="540" y="405" />
            </Array>
          </mxGeometry>
        </mxCell>
        <mxCell id="itbHhN2c4KQKCx2iQy7b-32" style="edgeStyle=orthogonalEdgeStyle;rounded=0;orthogonalLoop=1;jettySize=auto;html=1;exitX=1;exitY=0.47;exitDx=0;exitDy=0;exitPerimeter=0;entryX=0;entryY=0.5;entryDx=0;entryDy=0;" parent="1" source="O0-RR_AGeSIj81ylTdOe-1" target="O0-RR_AGeSIj81ylTdOe-9" edge="1">
          <mxGeometry relative="1" as="geometry">
            <Array as="points">
              <mxPoint x="550" y="484" />
              <mxPoint x="550" y="435" />
            </Array>
          </mxGeometry>
        </mxCell>
        <mxCell id="itbHhN2c4KQKCx2iQy7b-33" style="edgeStyle=orthogonalEdgeStyle;rounded=0;orthogonalLoop=1;jettySize=auto;html=1;exitX=1;exitY=0.53;exitDx=0;exitDy=0;exitPerimeter=0;entryX=0;entryY=0.5;entryDx=0;entryDy=0;" parent="1" source="O0-RR_AGeSIj81ylTdOe-1" target="O0-RR_AGeSIj81ylTdOe-10" edge="1">
          <mxGeometry relative="1" as="geometry">
            <Array as="points">
              <mxPoint x="560" y="516" />
              <mxPoint x="560" y="465" />
            </Array>
          </mxGeometry>
        </mxCell>
        <mxCell id="itbHhN2c4KQKCx2iQy7b-34" style="edgeStyle=orthogonalEdgeStyle;rounded=0;orthogonalLoop=1;jettySize=auto;html=1;exitX=1;exitY=0.6;exitDx=0;exitDy=0;exitPerimeter=0;entryX=0;entryY=0.5;entryDx=0;entryDy=0;" parent="1" source="O0-RR_AGeSIj81ylTdOe-1" target="O0-RR_AGeSIj81ylTdOe-12" edge="1">
          <mxGeometry relative="1" as="geometry">
            <Array as="points">
              <mxPoint x="570" y="552" />
              <mxPoint x="570" y="515" />
            </Array>
          </mxGeometry>
        </mxCell>
        <mxCell id="itbHhN2c4KQKCx2iQy7b-35" style="edgeStyle=orthogonalEdgeStyle;rounded=0;orthogonalLoop=1;jettySize=auto;html=1;exitX=1;exitY=0.67;exitDx=0;exitDy=0;exitPerimeter=0;entryX=0;entryY=0.5;entryDx=0;entryDy=0;" parent="1" source="O0-RR_AGeSIj81ylTdOe-1" target="itbHhN2c4KQKCx2iQy7b-1" edge="1">
          <mxGeometry relative="1" as="geometry">
            <Array as="points">
              <mxPoint x="580" y="588" />
              <mxPoint x="580" y="545" />
            </Array>
          </mxGeometry>
        </mxCell>
        <mxCell id="itbHhN2c4KQKCx2iQy7b-36" style="edgeStyle=orthogonalEdgeStyle;rounded=0;orthogonalLoop=1;jettySize=auto;html=1;exitX=1;exitY=0.73;exitDx=0;exitDy=0;exitPerimeter=0;entryX=0;entryY=0.5;entryDx=0;entryDy=0;" parent="1" source="O0-RR_AGeSIj81ylTdOe-1" target="itbHhN2c4KQKCx2iQy7b-2" edge="1">
          <mxGeometry relative="1" as="geometry">
            <Array as="points">
              <mxPoint x="590" y="620" />
              <mxPoint x="590" y="585" />
            </Array>
          </mxGeometry>
        </mxCell>
        <mxCell id="itbHhN2c4KQKCx2iQy7b-37" style="edgeStyle=orthogonalEdgeStyle;rounded=0;orthogonalLoop=1;jettySize=auto;html=1;exitX=1;exitY=0.8;exitDx=0;exitDy=0;exitPerimeter=0;entryX=0;entryY=0.5;entryDx=0;entryDy=0;" parent="1" source="O0-RR_AGeSIj81ylTdOe-1" target="O0-RR_AGeSIj81ylTdOe-11" edge="1">
          <mxGeometry relative="1" as="geometry" />
        </mxCell>
        <mxCell id="itbHhN2c4KQKCx2iQy7b-38" style="edgeStyle=orthogonalEdgeStyle;rounded=0;orthogonalLoop=1;jettySize=auto;html=1;exitX=1;exitY=0.87;exitDx=0;exitDy=0;exitPerimeter=0;entryX=0;entryY=0.5;entryDx=0;entryDy=0;" parent="1" source="O0-RR_AGeSIj81ylTdOe-1" target="O0-RR_AGeSIj81ylTdOe-14" edge="1">
          <mxGeometry relative="1" as="geometry" />
        </mxCell>
        <mxCell id="itbHhN2c4KQKCx2iQy7b-39" style="edgeStyle=orthogonalEdgeStyle;rounded=0;orthogonalLoop=1;jettySize=auto;html=1;exitX=1;exitY=0.93;exitDx=0;exitDy=0;exitPerimeter=0;entryX=0;entryY=0.5;entryDx=0;entryDy=0;" parent="1" source="O0-RR_AGeSIj81ylTdOe-1" target="O0-RR_AGeSIj81ylTdOe-2" edge="1">
          <mxGeometry relative="1" as="geometry" />
        </mxCell>
        <mxCell id="O0-RR_AGeSIj81ylTdOe-1" value="MicroController" style="rounded=0;whiteSpace=wrap;html=1;points=[[0,0,0,0,0],[0,0.06,0,0,0],[0,0.13,0,0,0],[0,0.19,0,0,0],[0,0.25,0,0,0],[0,0.31,0,0,0],[0,0.38,0,0,0],[0,0.44,0,0,0],[0,0.5,0,0,0],[0,0.56,0,0,0],[0,0.63,0,0,0],[0,0.69,0,0,0],[0,0.75,0,0,0],[0,0.81,0,0,0],[0,0.88,0,0,0],[0,0.94,0,0,0],[0,1,0,0,0],[0.25,0,0,0,0],[0.25,1,0,0,0],[0.5,0,0,0,0],[0.5,1,0,0,0],[0.75,0,0,0,0],[0.75,1,0,0,0],[1,0,0,0,0],[1,0.07,0,0,0],[1,0.13,0,0,0],[1,0.2,0,0,0],[1,0.27,0,0,0],[1,0.33,0,0,0],[1,0.4,0,0,0],[1,0.47,0,0,0],[1,0.53,0,0,0],[1,0.6,0,0,0],[1,0.67,0,0,0],[1,0.73,0,0,0],[1,0.8,0,0,0],[1,0.87,0,0,0],[1,0.93,0,0,0],[1,1,0,0,0]];" parent="1" vertex="1">
          <mxGeometry x="360" y="240" width="140" height="520" as="geometry" />
        </mxCell>
        <mxCell id="O0-RR_AGeSIj81ylTdOe-2" value="Heater" style="rounded=0;whiteSpace=wrap;html=1;" parent="1" vertex="1">
          <mxGeometry x="610" y="730" width="90" height="30" as="geometry" />
        </mxCell>
        <mxCell id="O0-RR_AGeSIj81ylTdOe-3" value="Nutrient Pump" style="rounded=0;whiteSpace=wrap;html=1;" parent="1" vertex="1">
          <mxGeometry x="610" y="240" width="110" height="30" as="geometry" />
        </mxCell>
        <mxCell id="O0-RR_AGeSIj81ylTdOe-4" value="Nutrient Pump" style="rounded=0;whiteSpace=wrap;html=1;" parent="1" vertex="1">
          <mxGeometry x="610" y="270" width="110" height="30" as="geometry" />
        </mxCell>
        <mxCell id="O0-RR_AGeSIj81ylTdOe-5" value="Nutrient Pump" style="rounded=0;whiteSpace=wrap;html=1;" parent="1" vertex="1">
          <mxGeometry x="610" y="300" width="110" height="30" as="geometry" />
        </mxCell>
        <mxCell id="O0-RR_AGeSIj81ylTdOe-6" value="Nutrient Pump" style="rounded=0;whiteSpace=wrap;html=1;" parent="1" vertex="1">
          <mxGeometry x="610" y="330" width="110" height="30" as="geometry" />
        </mxCell>
        <mxCell id="O0-RR_AGeSIj81ylTdOe-7" value="Nutrient Pump" style="rounded=0;whiteSpace=wrap;html=1;" parent="1" vertex="1">
          <mxGeometry x="610" y="360" width="110" height="30" as="geometry" />
        </mxCell>
        <mxCell id="O0-RR_AGeSIj81ylTdOe-8" value="Nutrient Pump" style="rounded=0;whiteSpace=wrap;html=1;" parent="1" vertex="1">
          <mxGeometry x="610" y="390" width="110" height="30" as="geometry" />
        </mxCell>
        <mxCell id="O0-RR_AGeSIj81ylTdOe-9" value="Nutrient Pump" style="rounded=0;whiteSpace=wrap;html=1;" parent="1" vertex="1">
          <mxGeometry x="610" y="420" width="110" height="30" as="geometry" />
        </mxCell>
        <mxCell id="O0-RR_AGeSIj81ylTdOe-10" value="Nutrient Pump" style="rounded=0;whiteSpace=wrap;html=1;" parent="1" vertex="1">
          <mxGeometry x="610" y="450" width="110" height="30" as="geometry" />
        </mxCell>
        <mxCell id="O0-RR_AGeSIj81ylTdOe-11" value="Water Valve" style="rounded=0;whiteSpace=wrap;html=1;" parent="1" vertex="1">
          <mxGeometry x="610" y="630" width="90" height="30" as="geometry" />
        </mxCell>
        <mxCell id="O0-RR_AGeSIj81ylTdOe-12" value="Mixing Pump" style="rounded=0;whiteSpace=wrap;html=1;" parent="1" vertex="1">
          <mxGeometry x="610" y="500" width="110" height="30" as="geometry" />
        </mxCell>
        <mxCell id="O0-RR_AGeSIj81ylTdOe-14" value="UV Steriliser" style="rounded=0;whiteSpace=wrap;html=1;" parent="1" vertex="1">
          <mxGeometry x="610" y="680" width="90" height="30" as="geometry" />
        </mxCell>
        <mxCell id="itbHhN2c4KQKCx2iQy7b-10" style="edgeStyle=orthogonalEdgeStyle;rounded=0;orthogonalLoop=1;jettySize=auto;html=1;entryX=0;entryY=0.19;entryDx=0;entryDy=0;entryPerimeter=0;exitX=1;exitY=0.25;exitDx=0;exitDy=0;" parent="1" source="O0-RR_AGeSIj81ylTdOe-15" target="O0-RR_AGeSIj81ylTdOe-1" edge="1">
          <mxGeometry relative="1" as="geometry">
            <Array as="points">
              <mxPoint x="260" y="373" />
              <mxPoint x="260" y="339" />
            </Array>
          </mxGeometry>
        </mxCell>
        <mxCell id="O0-RR_AGeSIj81ylTdOe-15" value="Depth Sensor&lt;br&gt;(Mixing Tank)" style="rounded=0;whiteSpace=wrap;html=1;" parent="1" vertex="1">
          <mxGeometry x="110" y="360" width="140" height="50" as="geometry" />
        </mxCell>
        <mxCell id="itbHhN2c4KQKCx2iQy7b-14" style="edgeStyle=orthogonalEdgeStyle;rounded=0;orthogonalLoop=1;jettySize=auto;html=1;exitX=1;exitY=0.25;exitDx=0;exitDy=0;entryX=0;entryY=0.31;entryDx=0;entryDy=0;entryPerimeter=0;" parent="1" source="O0-RR_AGeSIj81ylTdOe-16" target="O0-RR_AGeSIj81ylTdOe-1" edge="1">
          <mxGeometry relative="1" as="geometry">
            <Array as="points">
              <mxPoint x="280" y="423" />
              <mxPoint x="280" y="401" />
            </Array>
          </mxGeometry>
        </mxCell>
        <mxCell id="O0-RR_AGeSIj81ylTdOe-16" value="Depth Sensor&lt;br&gt;(Supply Tank)" style="rounded=0;whiteSpace=wrap;html=1;" parent="1" vertex="1">
          <mxGeometry x="110" y="410" width="140" height="50" as="geometry" />
        </mxCell>
        <mxCell id="itbHhN2c4KQKCx2iQy7b-16" style="edgeStyle=orthogonalEdgeStyle;rounded=0;orthogonalLoop=1;jettySize=auto;html=1;exitX=1;exitY=0.25;exitDx=0;exitDy=0;entryX=0;entryY=0.44;entryDx=0;entryDy=0;entryPerimeter=0;" parent="1" source="O0-RR_AGeSIj81ylTdOe-20" target="O0-RR_AGeSIj81ylTdOe-1" edge="1">
          <mxGeometry relative="1" as="geometry" />
        </mxCell>
        <mxCell id="O0-RR_AGeSIj81ylTdOe-20" value="Depth Sensor&lt;br&gt;(Runoff Recyling Tank)" style="rounded=0;whiteSpace=wrap;html=1;" parent="1" vertex="1">
          <mxGeometry x="110" y="460" width="140" height="50" as="geometry" />
        </mxCell>
        <mxCell id="itbHhN2c4KQKCx2iQy7b-18" style="edgeStyle=orthogonalEdgeStyle;rounded=0;orthogonalLoop=1;jettySize=auto;html=1;exitX=1;exitY=0.25;exitDx=0;exitDy=0;entryX=0;entryY=0.56;entryDx=0;entryDy=0;entryPerimeter=0;" parent="1" source="O0-RR_AGeSIj81ylTdOe-21" target="O0-RR_AGeSIj81ylTdOe-1" edge="1">
          <mxGeometry relative="1" as="geometry" />
        </mxCell>
        <mxCell id="O0-RR_AGeSIj81ylTdOe-21" value="Depth Sensor&lt;br&gt;(Waste Water Tank)" style="rounded=0;whiteSpace=wrap;html=1;" parent="1" vertex="1">
          <mxGeometry x="110" y="510" width="140" height="50" as="geometry" />
        </mxCell>
        <mxCell id="itbHhN2c4KQKCx2iQy7b-21" style="edgeStyle=orthogonalEdgeStyle;rounded=0;orthogonalLoop=1;jettySize=auto;html=1;exitX=1;exitY=0.25;exitDx=0;exitDy=0;entryX=0;entryY=0.69;entryDx=0;entryDy=0;entryPerimeter=0;" parent="1" source="O0-RR_AGeSIj81ylTdOe-22" target="O0-RR_AGeSIj81ylTdOe-1" edge="1">
          <mxGeometry relative="1" as="geometry">
            <Array as="points">
              <mxPoint x="290" y="573" />
              <mxPoint x="290" y="599" />
            </Array>
          </mxGeometry>
        </mxCell>
        <mxCell id="O0-RR_AGeSIj81ylTdOe-22" value="Depth Sensor&lt;br&gt;(Water Supply Tank)" style="rounded=0;whiteSpace=wrap;html=1;" parent="1" vertex="1">
          <mxGeometry x="110" y="560" width="140" height="50" as="geometry" />
        </mxCell>
        <mxCell id="itbHhN2c4KQKCx2iQy7b-8" value="" style="edgeStyle=orthogonalEdgeStyle;rounded=0;orthogonalLoop=1;jettySize=auto;html=1;entryX=0;entryY=0.06;entryDx=0;entryDy=0;entryPerimeter=0;" parent="1" source="O0-RR_AGeSIj81ylTdOe-23" target="O0-RR_AGeSIj81ylTdOe-1" edge="1">
          <mxGeometry relative="1" as="geometry" />
        </mxCell>
        <mxCell id="O0-RR_AGeSIj81ylTdOe-23" value="TDS Sensor&lt;br&gt;(Water Supply)" style="rounded=0;whiteSpace=wrap;html=1;" parent="1" vertex="1">
          <mxGeometry x="160" y="240" width="90" height="50" as="geometry" />
        </mxCell>
        <mxCell id="itbHhN2c4KQKCx2iQy7b-9" value="" style="edgeStyle=orthogonalEdgeStyle;rounded=0;orthogonalLoop=1;jettySize=auto;html=1;entryX=0;entryY=0.13;entryDx=0;entryDy=0;entryPerimeter=0;" parent="1" source="O0-RR_AGeSIj81ylTdOe-24" target="O0-RR_AGeSIj81ylTdOe-1" edge="1">
          <mxGeometry relative="1" as="geometry" />
        </mxCell>
        <mxCell id="O0-RR_AGeSIj81ylTdOe-24" value="TDS Sensor&lt;br&gt;(Post RO)" style="rounded=0;whiteSpace=wrap;html=1;" parent="1" vertex="1">
          <mxGeometry x="160" y="290" width="90" height="50" as="geometry" />
        </mxCell>
        <mxCell id="itbHhN2c4KQKCx2iQy7b-1" value="Supply Pump" style="rounded=0;whiteSpace=wrap;html=1;" parent="1" vertex="1">
          <mxGeometry x="610" y="530" width="110" height="30" as="geometry" />
        </mxCell>
        <mxCell id="itbHhN2c4KQKCx2iQy7b-2" value="Runoff Recycling Pump" style="rounded=0;whiteSpace=wrap;html=1;" parent="1" vertex="1">
          <mxGeometry x="610" y="560" width="110" height="50" as="geometry" />
        </mxCell>
        <mxCell id="itbHhN2c4KQKCx2iQy7b-23" style="edgeStyle=orthogonalEdgeStyle;rounded=0;orthogonalLoop=1;jettySize=auto;html=1;exitX=1;exitY=0.5;exitDx=0;exitDy=0;entryX=0;entryY=0.81;entryDx=0;entryDy=0;entryPerimeter=0;" parent="1" source="itbHhN2c4KQKCx2iQy7b-4" target="O0-RR_AGeSIj81ylTdOe-1" edge="1">
          <mxGeometry relative="1" as="geometry" />
        </mxCell>
        <mxCell id="itbHhN2c4KQKCx2iQy7b-4" value="Solution Temperature Sensor" style="rounded=0;whiteSpace=wrap;html=1;" parent="1" vertex="1">
          <mxGeometry x="110" y="630" width="140" height="50" as="geometry" />
        </mxCell>
        <mxCell id="itbHhN2c4KQKCx2iQy7b-24" style="edgeStyle=orthogonalEdgeStyle;rounded=0;orthogonalLoop=1;jettySize=auto;html=1;exitX=1;exitY=0.25;exitDx=0;exitDy=0;entryX=0;entryY=0.88;entryDx=0;entryDy=0;entryPerimeter=0;" parent="1" source="itbHhN2c4KQKCx2iQy7b-5" target="O0-RR_AGeSIj81ylTdOe-1" edge="1">
          <mxGeometry relative="1" as="geometry" />
        </mxCell>
        <mxCell id="itbHhN2c4KQKCx2iQy7b-5" value="ISE Sensor Control Board" style="rounded=0;whiteSpace=wrap;html=1;" parent="1" vertex="1">
          <mxGeometry x="160" y="700" width="90" height="50" as="geometry" />
        </mxCell>
        <mxCell id="itbHhN2c4KQKCx2iQy7b-40" style="edgeStyle=orthogonalEdgeStyle;rounded=0;orthogonalLoop=1;jettySize=auto;html=1;exitX=0.5;exitY=1;exitDx=0;exitDy=0;entryX=0.5;entryY=0;entryDx=0;entryDy=0;entryPerimeter=0;startArrow=classic;startFill=1;" parent="1" source="itbHhN2c4KQKCx2iQy7b-6" target="O0-RR_AGeSIj81ylTdOe-1" edge="1">
          <mxGeometry relative="1" as="geometry" />
        </mxCell>
        <mxCell id="itbHhN2c4KQKCx2iQy7b-6" value="Raspberry Pi" style="rounded=0;whiteSpace=wrap;html=1;" parent="1" vertex="1">
          <mxGeometry x="360" y="140" width="140" height="60" as="geometry" />
        </mxCell>
        <mxCell id="itbHhN2c4KQKCx2iQy7b-7" value="5V" style="text;html=1;strokeColor=none;fillColor=none;align=right;verticalAlign=middle;whiteSpace=wrap;rounded=0;" parent="1" vertex="1">
          <mxGeometry x="360" y="120" width="140" height="20" as="geometry" />
        </mxCell>
        <mxCell id="itbHhN2c4KQKCx2iQy7b-41" value="5V" style="text;html=1;strokeColor=none;fillColor=none;align=right;verticalAlign=middle;whiteSpace=wrap;rounded=0;" parent="1" vertex="1">
          <mxGeometry x="360" y="220" width="140" height="20" as="geometry" />
        </mxCell>
        <mxCell id="itbHhN2c4KQKCx2iQy7b-42" value="12V" style="text;html=1;strokeColor=none;fillColor=none;align=right;verticalAlign=middle;whiteSpace=wrap;rounded=0;" parent="1" vertex="1">
          <mxGeometry x="610" y="220" width="110" height="20" as="geometry" />
        </mxCell>
        <mxCell id="itbHhN2c4KQKCx2iQy7b-43" value="12V" style="text;html=1;strokeColor=none;fillColor=none;align=right;verticalAlign=middle;whiteSpace=wrap;rounded=0;" parent="1" vertex="1">
          <mxGeometry x="610" y="480" width="110" height="20" as="geometry" />
        </mxCell>
        <mxCell id="itbHhN2c4KQKCx2iQy7b-44" value="12V" style="text;html=1;strokeColor=none;fillColor=none;align=right;verticalAlign=middle;whiteSpace=wrap;rounded=0;" parent="1" vertex="1">
          <mxGeometry x="610" y="610" width="90" height="20" as="geometry" />
        </mxCell>
        <mxCell id="itbHhN2c4KQKCx2iQy7b-46" value="240V AC" style="text;html=1;strokeColor=none;fillColor=none;align=right;verticalAlign=middle;whiteSpace=wrap;rounded=0;" parent="1" vertex="1">
          <mxGeometry x="610" y="660" width="90" height="20" as="geometry" />
        </mxCell>
        <mxCell id="itbHhN2c4KQKCx2iQy7b-47" value="240V AC" style="text;html=1;strokeColor=none;fillColor=none;align=right;verticalAlign=middle;whiteSpace=wrap;rounded=0;" parent="1" vertex="1">
          <mxGeometry x="610" y="710" width="90" height="20" as="geometry" />
        </mxCell>
        <mxCell id="itbHhN2c4KQKCx2iQy7b-48" value="5V" style="text;html=1;strokeColor=none;fillColor=none;align=right;verticalAlign=middle;whiteSpace=wrap;rounded=0;" parent="1" vertex="1">
          <mxGeometry x="160" y="220" width="90" height="20" as="geometry" />
        </mxCell>
        <mxCell id="itbHhN2c4KQKCx2iQy7b-49" value="5V" style="text;html=1;strokeColor=none;fillColor=none;align=right;verticalAlign=middle;whiteSpace=wrap;rounded=0;" parent="1" vertex="1">
          <mxGeometry x="110" y="340" width="140" height="20" as="geometry" />
        </mxCell>
        <mxCell id="itbHhN2c4KQKCx2iQy7b-50" value="5V" style="text;html=1;strokeColor=none;fillColor=none;align=right;verticalAlign=middle;whiteSpace=wrap;rounded=0;" parent="1" vertex="1">
          <mxGeometry x="110" y="610" width="140" height="20" as="geometry" />
        </mxCell>
        <mxCell id="itbHhN2c4KQKCx2iQy7b-51" value="5V" style="text;html=1;strokeColor=none;fillColor=none;align=right;verticalAlign=middle;whiteSpace=wrap;rounded=0;" parent="1" vertex="1">
          <mxGeometry x="160" y="680" width="90" height="20" as="geometry" />
        </mxCell>
      </root>
    </mxGraphModel>
  </diagram>
  <diagram id="eWkNP94iuxJ36APAZdXU" name="V2,2">
    <mxGraphModel dx="1724" dy="1158" grid="1" gridSize="10" guides="1" tooltips="1" connect="1" arrows="1" fold="1" page="1" pageScale="1" pageWidth="827" pageHeight="1169" math="0" shadow="0">
      <root>
        <mxCell id="0" />
        <mxCell id="1" parent="0" />
        <mxCell id="8bdW0bezUu362OrzNyZ3-2" style="edgeStyle=orthogonalEdgeStyle;rounded=0;orthogonalLoop=1;jettySize=auto;html=1;exitX=0;exitY=0.38;exitDx=0;exitDy=0;exitPerimeter=0;entryX=1;entryY=0.75;entryDx=0;entryDy=0;" edge="1" parent="1" source="8bdW0bezUu362OrzNyZ3-21" target="8bdW0bezUu362OrzNyZ3-37">
          <mxGeometry relative="1" as="geometry">
            <Array as="points">
              <mxPoint x="290" y="438" />
              <mxPoint x="290" y="448" />
            </Array>
          </mxGeometry>
        </mxCell>
        <mxCell id="8bdW0bezUu362OrzNyZ3-3" style="edgeStyle=orthogonalEdgeStyle;rounded=0;orthogonalLoop=1;jettySize=auto;html=1;exitX=0;exitY=0.5;exitDx=0;exitDy=0;exitPerimeter=0;entryX=1;entryY=0.75;entryDx=0;entryDy=0;" edge="1" parent="1" source="8bdW0bezUu362OrzNyZ3-21" target="8bdW0bezUu362OrzNyZ3-39">
          <mxGeometry relative="1" as="geometry" />
        </mxCell>
        <mxCell id="8bdW0bezUu362OrzNyZ3-17" style="edgeStyle=orthogonalEdgeStyle;rounded=0;orthogonalLoop=1;jettySize=auto;html=1;exitX=1;exitY=0.73;exitDx=0;exitDy=0;exitPerimeter=0;entryX=0;entryY=0.5;entryDx=0;entryDy=0;" edge="1" parent="1" source="8bdW0bezUu362OrzNyZ3-21" target="8bdW0bezUu362OrzNyZ3-49">
          <mxGeometry relative="1" as="geometry">
            <Array as="points">
              <mxPoint x="590" y="620" />
              <mxPoint x="590" y="585" />
            </Array>
          </mxGeometry>
        </mxCell>
        <mxCell id="8bdW0bezUu362OrzNyZ3-21" value="MicroController" style="rounded=0;whiteSpace=wrap;html=1;points=[[0,0,0,0,0],[0,0.06,0,0,0],[0,0.13,0,0,0],[0,0.19,0,0,0],[0,0.25,0,0,0],[0,0.31,0,0,0],[0,0.38,0,0,0],[0,0.44,0,0,0],[0,0.5,0,0,0],[0,0.56,0,0,0],[0,0.63,0,0,0],[0,0.69,0,0,0],[0,0.75,0,0,0],[0,0.81,0,0,0],[0,0.88,0,0,0],[0,0.94,0,0,0],[0,1,0,0,0],[0.25,0,0,0,0],[0.25,1,0,0,0],[0.5,0,0,0,0],[0.5,1,0,0,0],[0.75,0,0,0,0],[0.75,1,0,0,0],[1,0,0,0,0],[1,0.07,0,0,0],[1,0.13,0,0,0],[1,0.2,0,0,0],[1,0.27,0,0,0],[1,0.33,0,0,0],[1,0.4,0,0,0],[1,0.47,0,0,0],[1,0.53,0,0,0],[1,0.6,0,0,0],[1,0.67,0,0,0],[1,0.73,0,0,0],[1,0.8,0,0,0],[1,0.87,0,0,0],[1,0.93,0,0,0],[1,1,0,0,0]];" vertex="1" parent="1">
          <mxGeometry x="360" y="240" width="140" height="520" as="geometry" />
        </mxCell>
        <mxCell id="8bdW0bezUu362OrzNyZ3-36" style="edgeStyle=orthogonalEdgeStyle;rounded=0;orthogonalLoop=1;jettySize=auto;html=1;exitX=1;exitY=0.25;exitDx=0;exitDy=0;entryX=0;entryY=0.31;entryDx=0;entryDy=0;entryPerimeter=0;" edge="1" parent="1" source="8bdW0bezUu362OrzNyZ3-37" target="8bdW0bezUu362OrzNyZ3-21">
          <mxGeometry relative="1" as="geometry">
            <Array as="points">
              <mxPoint x="280" y="423" />
              <mxPoint x="280" y="401" />
            </Array>
          </mxGeometry>
        </mxCell>
        <mxCell id="8bdW0bezUu362OrzNyZ3-37" value="Depth Sensor&lt;br&gt;(Irrigation Supply Tank)" style="rounded=0;whiteSpace=wrap;html=1;" vertex="1" parent="1">
          <mxGeometry x="110" y="410" width="140" height="50" as="geometry" />
        </mxCell>
        <mxCell id="8bdW0bezUu362OrzNyZ3-38" style="edgeStyle=orthogonalEdgeStyle;rounded=0;orthogonalLoop=1;jettySize=auto;html=1;exitX=1;exitY=0.25;exitDx=0;exitDy=0;entryX=0;entryY=0.44;entryDx=0;entryDy=0;entryPerimeter=0;" edge="1" parent="1" source="8bdW0bezUu362OrzNyZ3-39" target="8bdW0bezUu362OrzNyZ3-21">
          <mxGeometry relative="1" as="geometry" />
        </mxCell>
        <mxCell id="8bdW0bezUu362OrzNyZ3-39" value="Depth Sensor&lt;br&gt;(Runoff Recyling Tank)" style="rounded=0;whiteSpace=wrap;html=1;" vertex="1" parent="1">
          <mxGeometry x="110" y="460" width="140" height="50" as="geometry" />
        </mxCell>
        <mxCell id="8bdW0bezUu362OrzNyZ3-49" value="Runoff Recycling Pump" style="rounded=0;whiteSpace=wrap;html=1;" vertex="1" parent="1">
          <mxGeometry x="610" y="560" width="110" height="50" as="geometry" />
        </mxCell>
        <mxCell id="8bdW0bezUu362OrzNyZ3-57" value="5V" style="text;html=1;strokeColor=none;fillColor=none;align=right;verticalAlign=middle;whiteSpace=wrap;rounded=0;" vertex="1" parent="1">
          <mxGeometry x="360" y="220" width="140" height="20" as="geometry" />
        </mxCell>
        <mxCell id="8bdW0bezUu362OrzNyZ3-59" value="12V" style="text;html=1;strokeColor=none;fillColor=none;align=right;verticalAlign=middle;whiteSpace=wrap;rounded=0;" vertex="1" parent="1">
          <mxGeometry x="610" y="540" width="110" height="20" as="geometry" />
        </mxCell>
        <mxCell id="8bdW0bezUu362OrzNyZ3-64" value="5V" style="text;html=1;strokeColor=none;fillColor=none;align=right;verticalAlign=middle;whiteSpace=wrap;rounded=0;" vertex="1" parent="1">
          <mxGeometry x="110" y="390" width="140" height="20" as="geometry" />
        </mxCell>
      </root>
    </mxGraphModel>
  </diagram>
</mxfile>
